<?xml version="1.0" encoding="UTF-8" standalone="no"?>
<!-- Created with Inkscape (http://www.inkscape.org/) -->

<svg
   width="121.9542mm"
   height="86.640694mm"
   viewBox="0 0 121.9542 86.640694"
   version="1.1"
   id="svg5"
   xml:space="preserve"
   xmlns="http://www.w3.org/2000/svg"
   xmlns:svg="http://www.w3.org/2000/svg"><defs
     id="defs2" /><g
     id="layer1"
     transform="translate(-45.816907,-22.207553)"><path
       style="fill:#ffffff;fill-opacity:1;stroke:#000000;stroke-width:2;stroke-linecap:round;stroke-linejoin:round;stroke-dasharray:none;stroke-opacity:1"
       d="m 99.779925,107.65442 c 0,0 -11.771407,-10.088961 -11.650427,-17.710311 0.12097,-7.62136 12.702272,-14.81931 16.633922,-15.96856 3.93165,-1.14925 6.11619,-1.49214 9.67791,-1.3912 3.56172,0.10095 7.67817,1.66464 11.31107,2.84288 3.6329,1.17824 7.10615,2.27478 10.88764,3.32679 3.78149,1.05201 9.91985,2.05656 11.79496,2.47996 1.87509,0.42341 6.89551,0.30244 9.2545,0.36293 2.35899,0.0605 7.80282,0.66535 8.89158,-1.45169 1.08877,-2.11704 -2.60094,-5.92772 -6.65356,-8.16574 -4.05263,-2.23802 -13.85152,-7.19795 -15.90808,-9.13353 -2.05656,-1.93558 -14.3354,-12.39983 -15.54514,-14.51687 -1.20973,-2.11705 -5.14138,-10.58522 -7.01648,-13.12567 -1.87509,-2.54045 -2.54045,-3.75019 -5.5648,-6.16967 -3.02435,-2.41948 -10.88765,-4.77847 -14.45638,-5.26236 -3.568735,-0.4839 -12.097402,-1.81461 -22.743112,2.60093 -10.6457,4.41555 -16.27099,15.7871 -21.17043,26.00939 -4.89945,10.2223 -10.70619,55.466541 -10.70619,55.466541"
       id="path4089" /><path
       style="fill:#f28c20;fill-opacity:1;stroke:none;stroke-width:2;stroke-linecap:round;stroke-linejoin:round;stroke-dasharray:none;stroke-opacity:1"
       d="m 119.13748,61.4259 2.13854,-6.928858 -0.17109,-4.02045 -0.76987,-3.849367 3.93491,2.309619 3.76382,1.796373 2.56624,0.427707 7.35656,5.987902 7.27103,6.757778 10.26499,5.81682 6.24452,3.336118 4.61924,4.191531 0.0856,3.5072 -4.79033,1.283124 h -10.09389 l -12.40352,-2.138537 -13.85771,-4.362617 -8.21199,-2.480701 -3.42166,-0.427707 -1.02649,-5.902362 1.02649,-2.566244 3.42166,-0.855417 z"
       id="path4331" /><path
       style="fill:none;fill-opacity:0.638404;stroke:#000000;stroke-width:2;stroke-linecap:round;stroke-linejoin:round;stroke-dasharray:none;stroke-opacity:1"
       d="m 129.98647,50.385639 c 0,0 -0.30243,1.14925 -1.57266,0.96779 -1.27021,-0.18146 -7.13745,-5.50432 -8.04475,-5.02042 -0.90731,0.48389 0.96779,3.56873 1.02828,4.53652 0.0605,0.96779 -0.0605,4.35506 -0.54439,5.68577 -0.48389,1.33072 -2.2985,5.80675 -3.56873,6.71406 -1.27022,0.9073 -3.2058,0.4234 -4.47603,1.93558 -1.27023,1.51217 1.47103,7.20639 1.47103,7.20639"
       id="path4091" /><path
       style="fill:#000000;fill-opacity:1;stroke:#000000;stroke-width:2;stroke-linecap:round;stroke-linejoin:round;stroke-dasharray:none;stroke-opacity:1"
       d="m 98.368495,37.061309 c 1.40763,-0.067 3.400275,0.53464 3.934915,1.98884 0.53463,1.45421 0.8768,2.9298 -0.85542,3.84937 -1.732215,0.91957 -3.977685,1.17619 -5.880987,-0.21385 -1.90329,-1.39005 -1.606,-3.33872 -0.62017,-4.12738 0.98582,-0.78866 2.014022,-1.42994 3.421662,-1.49698 z"
       id="path4093" /><path
       style="fill:#000000;fill-opacity:1;stroke:#000000;stroke-width:1;stroke-linecap:round;stroke-linejoin:round;stroke-dasharray:none;stroke-opacity:1"
       d="m 133.73667,59.609899 c 0.75157,0.0534 1.30047,-0.12098 1.90533,0.48389 0.60486,0.60487 1.05852,1.75412 -0.15122,1.96583 -1.20973,0.2117 -2.75215,0.0907 -3.44775,-0.36292 -0.6956,-0.45366 -1.30047,-1.08877 -0.84682,-1.81461 0.45366,-0.72585 1.78889,-0.32564 2.54046,-0.27219 z"
       id="path4095" /><path
       style="fill:none;fill-opacity:1;stroke:#000000;stroke-width:2;stroke-linecap:round;stroke-linejoin:round;stroke-dasharray:none;stroke-opacity:1"
       d="m 115.28815,64.479099 c 0,0 4.83896,4.23408 7.50039,5.0809 2.66142,0.84682 16.5549,5.89002 18.08558,6.47211 2.14728,0.81657 15.00077,5.47407 18.26707,5.59504"
       id="path4097" /><path
       style="fill:none;fill-opacity:1;stroke:#000000;stroke-width:2;stroke-linecap:round;stroke-linejoin:round;stroke-dasharray:none;stroke-opacity:1"
       d="m 99.779925,107.65442 c 0,0 -11.771407,-10.088961 -11.650427,-17.710311 0.12097,-7.62136 12.702272,-14.81931 16.633922,-15.96856 3.93165,-1.14925 6.11619,-1.49214 9.67791,-1.3912 3.56172,0.10095 7.67817,1.66464 11.31107,2.84288 3.6329,1.17824 7.10615,2.27478 10.88764,3.32679 3.78149,1.05201 9.91985,2.05656 11.79496,2.47996 1.87509,0.42341 6.89551,0.30244 9.2545,0.36293 2.35899,0.0605 7.80282,0.66535 8.89158,-1.45169 1.08877,-2.11704 -2.60094,-5.92772 -6.65356,-8.16574 -4.05263,-2.23802 -13.85152,-7.19795 -15.90808,-9.13353 -2.05656,-1.93558 -14.3354,-12.39983 -15.54514,-14.51687 -1.20973,-2.11705 -5.14138,-10.58522 -7.01648,-13.12567 -1.87509,-2.54045 -2.54045,-3.75019 -5.5648,-6.16967 -3.02435,-2.41948 -10.88765,-4.77847 -14.45638,-5.26236 -3.568735,-0.4839 -12.097402,-1.81461 -22.743112,2.60093 -10.6457,4.41555 -16.27099,15.7871 -21.17043,26.00939 -4.89945,10.2223 -10.70619,55.466541 -10.70619,55.466541"
       id="path1448" /></g></svg>
