<?xml version="1.0" encoding="UTF-8" standalone="no"?>
<!-- Created with Inkscape (http://www.inkscape.org/) -->

<svg
   width="121.95418mm"
   height="86.640686mm"
   viewBox="0 0 121.95418 86.640686"
   version="1.1"
   id="svg5"
   xml:space="preserve"
   sodipodi:docname="duck.svg"
   inkscape:version="1.2.2 (b0a8486541, 2022-12-01)"
   xmlns:inkscape="http://www.inkscape.org/namespaces/inkscape"
   xmlns:sodipodi="http://sodipodi.sourceforge.net/DTD/sodipodi-0.dtd"
   xmlns="http://www.w3.org/2000/svg"
   xmlns:svg="http://www.w3.org/2000/svg"><sodipodi:namedview
     id="namedview7"
     pagecolor="#b3b3b3"
     bordercolor="#000000"
     borderopacity="0.25"
     inkscape:showpageshadow="2"
     inkscape:pageopacity="0"
     inkscape:pagecheckerboard="0"
     inkscape:deskcolor="#d1d1d1"
     inkscape:document-units="mm"
     showgrid="false"
     inkscape:zoom="1.5465208"
     inkscape:cx="319.74999"
     inkscape:cy="666.65772"
     inkscape:window-width="1920"
     inkscape:window-height="1080"
     inkscape:window-x="1920"
     inkscape:window-y="0"
     inkscape:window-maximized="1"
     inkscape:current-layer="layer1"
     showguides="true" /><defs
     id="defs2" /><g
     inkscape:label="Layer 1"
     inkscape:groupmode="layer"
     id="layer1"
     transform="translate(-33.919526,-142.07)"><path
       style="fill:#ffffff;fill-opacity:1;stroke:#000000;stroke-width:2;stroke-linecap:round;stroke-linejoin:round;stroke-dasharray:none;stroke-opacity:1"
       d="m 87.882545,227.51687 c 0,0 -11.7714,-10.08896 -11.65042,-17.71031 0.12097,-7.62136 12.70226,-14.81931 16.63391,-15.96856 3.93165,-1.14925 2.12404,-0.52435 5.68576,-0.42341 0.99548,3.95032 5.859535,7.41165 10.940585,12.54051 5.08105,5.12886 14.31241,11.5212 16.87765,9.00648 2.56503,-2.51451 -16.49173,-20.11292 -18.6715,-26.56383 3.65495,2.32038 7.47834,3.80655 10.76451,5.18167 20.90857,8.74929 35.2805,8.25633 36.22065,6.42825 1.08876,-2.11704 -2.60094,-5.92772 -6.65356,-8.16574 -4.05263,-2.23802 -13.85151,-7.19795 -15.90807,-9.13353 -2.05656,-1.93558 -14.33541,-12.39982 -15.54515,-14.51687 -1.20974,-2.11704 -5.14139,-10.58521 -7.01649,-13.12567 -1.87509,-2.54045 -2.54045,-3.75019 -5.5648,-6.16967 -3.02435,-2.41947 -10.887635,-4.77847 -14.456375,-5.26236 -3.56872,-0.4839 -12.09739,-1.81461 -22.74309,2.60094 -10.6457,4.41554 -16.27099,15.78709 -21.17044,26.00939 -4.89944,10.22229 -10.70619,55.46653 -10.70619,55.46653"
       id="path409"
       sodipodi:nodetypes="cssczscssssssssssc"
       inkscape:export-filename="./duck-open.svg"
       inkscape:export-xdpi="96"
       inkscape:export-ydpi="96" /><path
       style="fill:#f28c20;fill-opacity:1;stroke:none;stroke-width:2;stroke-linecap:round;stroke-linejoin:round"
       d="m 118.79638,170.57322 15.96856,14.09346 15.78709,8.95207 4.11312,4.1736 -0.12098,2.84288 -7.74233,0.42341 -15.90807,-2.96386 -20.02118,-7.68184 -2.66143,-1.45169 9.43597,13.0047 8.77061,10.88765 -0.0605,2.84289 -6.59308,-1.57266 -13.67005,-10.94815 -7.984277,-10.10132 3.084837,-8.28671 4.41554,-1.69363 3.56874,-7.25844 0.18146,-5.32285 -1.20974,-3.62922 2.66142,0.36292 5.50432,4.05263 z"
       id="path1101" /><path
       style="fill:none;fill-opacity:0.638404;stroke:#000000;stroke-width:2;stroke-linecap:round;stroke-linejoin:round;stroke-dasharray:none;stroke-opacity:1"
       d="m 118.08908,170.24809 c 0,0 -0.30243,1.14925 -1.57266,0.96779 -1.27022,-0.18146 -7.13746,-5.50431 -8.04476,-5.02042 -0.90731,0.4839 0.96779,3.56873 1.02828,4.53653 0.0605,0.96779 -0.0605,4.35506 -0.54439,5.68577 -0.48389,1.33071 -2.2985,5.80675 -3.56873,6.71405 -1.27022,0.9073 -3.2058,0.42341 -4.47603,1.93558 -1.270225,1.51218 -2.720495,7.71964 -2.720495,7.71964"
       id="path3977"
       sodipodi:nodetypes="cssssssc" /><path
       style="fill:#000000;fill-opacity:1;stroke:#000000;stroke-width:2;stroke-linecap:round;stroke-linejoin:round;stroke-dasharray:none;stroke-opacity:1"
       d="m 86.471105,156.92377 c 1.40764,-0.067 3.40028,0.53463 3.93491,1.98884 0.53464,1.4542 0.8768,2.92979 -0.85541,3.84936 -1.73222,0.91957 -3.97768,1.1762 -5.88098,-0.21385 -1.9033,-1.39005 -1.606,-3.33872 -0.62017,-4.12738 0.98582,-0.78866 2.01402,-1.42994 3.42165,-1.49697 z"
       id="path3979"
       sodipodi:nodetypes="zssszz" /><path
       style="fill:#000000;fill-opacity:1;stroke:#000000;stroke-width:1;stroke-linecap:round;stroke-linejoin:round;stroke-dasharray:none;stroke-opacity:1"
       d="m 121.83928,179.47235 c 0.75157,0.0534 1.30047,-0.12097 1.90534,0.48389 0.60486,0.60488 1.05852,1.75413 -0.15122,1.96583 -1.20974,0.21171 -2.75216,0.0907 -3.44776,-0.36292 -0.6956,-0.45365 -1.30047,-1.08876 -0.84682,-1.81461 0.45366,-0.72584 1.78889,-0.32563 2.54046,-0.27219 z"
       id="path3981"
       sodipodi:nodetypes="zssssz" /><path
       style="fill:none;fill-opacity:1;stroke:#000000;stroke-width:2;stroke-linecap:round;stroke-linejoin:round;stroke-dasharray:none;stroke-opacity:1"
       d="m 87.882545,227.51687 c 0,0 -11.7714,-10.08896 -11.65042,-17.71031 0.12097,-7.62136 12.70226,-14.81931 16.63391,-15.96856 3.93165,-1.14925 2.12404,-0.52435 5.68576,-0.42341 0.99548,3.95032 5.859535,7.41165 10.940585,12.54051 5.08105,5.12886 14.31241,11.5212 16.87765,9.00648 2.56503,-2.51451 -16.49173,-20.11292 -18.6715,-26.56383 3.65495,2.32038 7.47834,3.80655 10.76451,5.18167 20.90857,8.74929 35.2805,8.25633 36.22065,6.42825 1.08876,-2.11704 -2.60094,-5.92772 -6.65356,-8.16574 -4.05263,-2.23802 -13.85151,-7.19795 -15.90807,-9.13353 -2.05656,-1.93558 -14.33541,-12.39982 -15.54515,-14.51687 -1.20974,-2.11704 -5.14139,-10.58521 -7.01649,-13.12567 -1.87509,-2.54045 -2.54045,-3.75019 -5.5648,-6.16967 -3.02435,-2.41947 -10.887635,-4.77847 -14.456375,-5.26236 -3.56872,-0.4839 -12.09739,-1.81461 -22.74309,2.60094 -10.6457,4.41554 -16.27099,15.78709 -21.17044,26.00939 -4.89944,10.22229 -10.70619,55.46653 -10.70619,55.46653"
       id="path1450"
       sodipodi:nodetypes="cssczscssssssssssc" /></g></svg>
