<?xml version="1.0" encoding="UTF-8" standalone="no"?>
<svg
   version="1.1"
   width="45"
   height="45"
   id="svg170"
   xmlns="http://www.w3.org/2000/svg"
   xmlns:svg="http://www.w3.org/2000/svg">
  <defs
     id="defs174">
    <clipPath
       clipPathUnits="userSpaceOnUse"
       id="clipPath1246">
      <path
         id="path1248"
         style="display:none;fill:none;stroke:#000000;stroke-width:1.5;stroke-linecap:round;stroke-linejoin:round;stroke-dasharray:none;stroke-opacity:1"
         d="M 37.822956,22.499999 A 15.322957,15.322957 0 0 1 22.499999,37.822956 15.322957,15.322957 0 0 1 7.1770433,22.499999 15.322957,15.322957 0 0 1 22.499999,7.1770434 15.322957,15.322957 0 0 1 37.822956,22.499999 Z" />
      <path
         id="lpe_path-effect1250"
         style="fill:none;stroke:#000000;stroke-width:1.5;stroke-linecap:round;stroke-linejoin:round;stroke-dasharray:none;stroke-opacity:1"
         class="powerclip"
         d="M -2.7666375,-2.7666374 H 47.766637 V 47.766637 H -2.7666375 Z M 37.822956,22.499999 A 15.322957,15.322957 0 0 0 22.499999,7.1770434 15.322957,15.322957 0 0 0 7.1770433,22.499999 15.322957,15.322957 0 0 0 22.499999,37.822956 15.322957,15.322957 0 0 0 37.822956,22.499999 Z" />
    </clipPath>
  </defs>
  <rect
     style="fill:#ffffff;fill-opacity:1;stroke:#000000;stroke-width:1.5;stroke-linecap:round;stroke-linejoin:round;stroke-dasharray:none;stroke-opacity:1"
     id="rect1308"
     width="4.251152"
     height="30.224655"
     x="29.585302"
     y="-17.742964"
     transform="rotate(49.742222)" />
  <path
     id="path605"
     style="fill:#ffffff;fill-opacity:1;stroke:#000000;stroke-width:1.5;stroke-linecap:round;stroke-linejoin:round;stroke-dasharray:none;stroke-opacity:1"
     d="M 42.016637,22.499999 A 19.516638,19.516638 0 0 1 22.499999,42.016637 19.516638,19.516638 0 0 1 2.9833625,22.499999 19.516638,19.516638 0 0 1 22.499999,2.9833626 19.516638,19.516638 0 0 1 42.016637,22.499999 Z"
     clip-path="url(#clipPath1246)" />
  <path
     id="path1214"
     style="fill:none;stroke:#000000;stroke-width:1.5;stroke-linecap:round;stroke-linejoin:round;stroke-dasharray:none;stroke-opacity:1"
     d="M 37.822956,22.499999 A 15.322957,15.322957 0 0 1 22.499999,37.822956 15.322957,15.322957 0 0 1 7.1770433,22.499999 15.322957,15.322957 0 0 1 22.499999,7.1770434 15.322957,15.322957 0 0 1 37.822956,22.499999 Z" />
</svg>
