<?xml version="1.0" encoding="UTF-8" standalone="no"?>
<svg
   version="1.1"
   width="45"
   height="45"
   id="svg3"
   xmlns="http://www.w3.org/2000/svg"
   xmlns:svg="http://www.w3.org/2000/svg">
  <defs
     id="defs3" />
  <g
     style="opacity:1;fill:none;fill-rule:evenodd;stroke:#000000;stroke-width:1.5;stroke-linecap:round;stroke-linejoin:round;stroke-miterlimit:4;stroke-dasharray:none;stroke-opacity:1"
     transform="translate(0,0.3)"
     id="g3">
    <path
       d="m 11,39 h 23 c 6,0 7,-9 3,-14 -4,1 -7,-1 -8,-6 0,-8 -12,-8 -14,-2 -4,-1 -9,1 -9,3 0,2 5,2 8,1 -3,5 -4,12 -3,18 z"
       style="fill:#ffffff;stroke:#000000"
       id="path1" />
    <path
       d="m 20,28 c 4,-1 8,0 10,-2 -2,5 -7,6 -12,5 0,-2 1,-3 2,-3 z"
       style="fill:#ffffff;stroke:#000000"
       id="path2" />
    <path
       d="M 8.1293927,19.925475 13.596386,19.323829"
       style="fill:none;stroke:#000000;stroke-width:1.2;stroke-dasharray:none"
       id="path3" />
    <circle
       cx="19.261021"
       cy="17.12645"
       r="1.2"
       style="fill:#000000;stroke:#000000"
       id="circle3" />
  </g>
</svg>
